# xmcd
#
# Track frame offsets:
#	182
#	11272
#	25152
#	35570
#	51170
#	63442
#	76850
#	90140
#	104465
#	119487
#	133752
#	147127
#	160105
#	171950
#	185112
#
# Disc length: 2630
#
# Revision: 1
# Processed by: cddbd v1.5.1PL0 Copyright (c) Steve Scherf et al.
# Submitted via: CDex 1.50
# Normalized: r0:TDELIM( - )
#
DISCID=c00a440f
DTITLE=Original - Jazz Collection
DYEAR=1994
DGENRE=Jazz
TTITLE0=Earl Hines - Sweet Georgia Brown
TTITLE1=Earl Hines - That's a plenty
TTITLE2=Benny Goodman - Dear old southland
TTITLE3=Benny Goodman - Goodbye
TTITLE4=Ella Fitzgerald - I'll chase the blues
TTITLE5=Cab Calloway - Hi-de-hi in your soul
TTITLE6=Louis Amstrong - Lucky star
TTITLE7=Jimmie Lunceford - Sleepy time gal
TTITLE8=Jimmie Lunceford - Rhapsody junior
TTITLE9=Art Tatum - Take me back to my boots and saddle
TTITLE10=Count Basie - Honeysuckle rose
TTITLE11=Sidney Bechet - Just wild about Harry
TTITLE12=Cab Calloway - That man is here again
TTITLE13=Billie Holiday - Summertime
TTITLE14=Ella Fitzgerald - My last affair
EXTD=YEAR: 1994
EXTT0=
EXTT1=
EXTT2=
EXTT3=
EXTT4=
EXTT5=
EXTT6=
EXTT7=
EXTT8=
EXTT9=
EXTT10=
EXTT11=
EXTT12=
EXTT13=
EXTT14=
PLAYORDER=
